<svg width="19" height="19" viewBox="0 0 19 19" fill="none" xmlns="http://www.w3.org/2000/svg">
<path d="M8.88381 1.24036C9.07768 0.613325 9.96544 0.61333 10.1593 1.24036L11.3887 5.21725C11.6746 6.14197 12.5296 6.77329 13.4974 6.77351H17.5596C18.1995 6.77351 18.4729 7.58663 17.9627 7.97279L14.5433 10.5589C13.8023 11.1194 13.4917 12.0848 13.7662 12.9725L15.0527 17.1339C15.2444 17.755 14.525 18.2561 14.0088 17.8609L10.8642 15.4513C10.0721 14.8444 8.97104 14.8444 8.17888 15.4513L5.01723 17.8739C4.50175 18.2682 3.7833 17.7687 3.97337 17.1479L5.24185 13.0046C5.51178 12.123 5.20566 11.1657 4.47374 10.605L1.03433 7.97078C0.527896 7.58282 0.802483 6.77351 1.44044 6.77351H5.54568C6.51355 6.77329 7.36856 6.14197 7.65445 5.21725L8.88381 1.24036Z" stroke="#FAFAFA" stroke-width="1.5"/>
</svg>
